<svg width="800" height="800" viewbox="0 0 800 800" xmlns="http://www.w3.org/2000/svg">
  <rect x="0" y="0" width="50" height="50" fill="rgb(0,0,0)"/>
  <rect x="50" y="0" width="50" height="50" fill="rgb(3,1,1)"/>
  <rect x="0" y="50" width="50" height="50" fill="rgb(6,2,1)"/>
  <rect x="100" y="0" width="50" height="50" fill="rgb(10,3,2)"/>
  <rect x="50" y="50" width="50" height="50" fill="rgb(13,4,2)"/>
  <rect x="0" y="100" width="50" height="50" fill="rgb(15,5,3)"/>
  <rect x="150" y="0" width="50" height="50" fill="rgb(17,6,3)"/>
  <rect x="100" y="50" width="50" height="50" fill="rgb(20,7,4)"/>
  <rect x="50" y="100" width="50" height="50" fill="rgb(21,8,4)"/>
  <rect x="0" y="150" width="50" height="50" fill="rgb(23,9,5)"/>
  <rect x="200" y="0" width="50" height="50" fill="rgb(25,10,5)"/>
  <rect x="150" y="50" width="50" height="50" fill="rgb(26,11,6)"/>
  <rect x="100" y="100" width="50" height="50" fill="rgb(28,11,6)"/>
  <rect x="50" y="150" width="50" height="50" fill="rgb(29,12,7)"/>
  <rect x="0" y="200" width="50" height="50" fill="rgb(31,13,8)"/>
  <rect x="250" y="0" width="50" height="50" fill="rgb(32,14,8)"/>
  <rect x="200" y="50" width="50" height="50" fill="rgb(33,15,9)"/>
  <rect x="150" y="100" width="50" height="50" fill="rgb(35,15,9)"/>
  <rect x="100" y="150" width="50" height="50" fill="rgb(36,16,10)"/>
  <rect x="50" y="200" width="50" height="50" fill="rgb(37,16,10)"/>
  <rect x="0" y="250" width="50" height="50" fill="rgb(39,17,11)"/>
  <rect x="300" y="0" width="50" height="50" fill="rgb(40,17,11)"/>
  <rect x="250" y="50" width="50" height="50" fill="rgb(42,18,12)"/>
  <rect x="200" y="100" width="50" height="50" fill="rgb(43,18,12)"/>
  <rect x="150" y="150" width="50" height="50" fill="rgb(45,18,13)"/>
  <rect x="100" y="200" width="50" height="50" fill="rgb(46,19,13)"/>
  <rect x="50" y="250" width="50" height="50" fill="rgb(48,19,14)"/>
  <rect x="0" y="300" width="50" height="50" fill="rgb(49,19,14)"/>
  <rect x="350" y="0" width="50" height="50" fill="rgb(51,20,15)"/>
  <rect x="300" y="50" width="50" height="50" fill="rgb(53,20,15)"/>
  <rect x="250" y="100" width="50" height="50" fill="rgb(54,20,15)"/>
  <rect x="200" y="150" width="50" height="50" fill="rgb(56,21,16)"/>
  <rect x="150" y="200" width="50" height="50" fill="rgb(57,21,16)"/>
  <rect x="100" y="250" width="50" height="50" fill="rgb(59,21,17)"/>
  <rect x="50" y="300" width="50" height="50" fill="rgb(60,22,17)"/>
  <rect x="0" y="350" width="50" height="50" fill="rgb(62,22,17)"/>
  <rect x="400" y="0" width="50" height="50" fill="rgb(64,22,18)"/>
  <rect x="350" y="50" width="50" height="50" fill="rgb(65,23,18)"/>
  <rect x="300" y="100" width="50" height="50" fill="rgb(67,23,18)"/>
  <rect x="250" y="150" width="50" height="50" fill="rgb(68,23,19)"/>
  <rect x="200" y="200" width="50" height="50" fill="rgb(70,24,19)"/>
  <rect x="150" y="250" width="50" height="50" fill="rgb(72,24,19)"/>
  <rect x="100" y="300" width="50" height="50" fill="rgb(73,24,19)"/>
  <rect x="50" y="350" width="50" height="50" fill="rgb(75,24,20)"/>
  <rect x="0" y="400" width="50" height="50" fill="rgb(76,25,20)"/>
  <rect x="450" y="0" width="50" height="50" fill="rgb(78,25,20)"/>
  <rect x="400" y="50" width="50" height="50" fill="rgb(80,25,21)"/>
  <rect x="350" y="100" width="50" height="50" fill="rgb(81,26,21)"/>
  <rect x="300" y="150" width="50" height="50" fill="rgb(83,26,21)"/>
  <rect x="250" y="200" width="50" height="50" fill="rgb(85,26,21)"/>
  <rect x="200" y="250" width="50" height="50" fill="rgb(86,26,22)"/>
  <rect x="150" y="300" width="50" height="50" fill="rgb(88,27,22)"/>
  <rect x="100" y="350" width="50" height="50" fill="rgb(90,27,22)"/>
  <rect x="50" y="400" width="50" height="50" fill="rgb(91,27,22)"/>
  <rect x="0" y="450" width="50" height="50" fill="rgb(93,27,23)"/>
  <rect x="500" y="0" width="50" height="50" fill="rgb(95,28,23)"/>
  <rect x="450" y="50" width="50" height="50" fill="rgb(96,28,23)"/>
  <rect x="400" y="100" width="50" height="50" fill="rgb(98,28,24)"/>
  <rect x="350" y="150" width="50" height="50" fill="rgb(100,28,24)"/>
  <rect x="300" y="200" width="50" height="50" fill="rgb(102,28,24)"/>
  <rect x="250" y="250" width="50" height="50" fill="rgb(103,29,24)"/>
  <rect x="200" y="300" width="50" height="50" fill="rgb(105,29,25)"/>
  <rect x="150" y="350" width="50" height="50" fill="rgb(107,29,25)"/>
  <rect x="100" y="400" width="50" height="50" fill="rgb(109,29,25)"/>
  <rect x="50" y="450" width="50" height="50" fill="rgb(110,29,25)"/>
  <rect x="0" y="500" width="50" height="50" fill="rgb(112,30,26)"/>
  <rect x="550" y="0" width="50" height="50" fill="rgb(114,30,26)"/>
  <rect x="500" y="50" width="50" height="50" fill="rgb(115,30,26)"/>
  <rect x="450" y="100" width="50" height="50" fill="rgb(117,30,26)"/>
  <rect x="400" y="150" width="50" height="50" fill="rgb(119,30,27)"/>
  <rect x="350" y="200" width="50" height="50" fill="rgb(121,30,27)"/>
  <rect x="300" y="250" width="50" height="50" fill="rgb(122,31,27)"/>
  <rect x="250" y="300" width="50" height="50" fill="rgb(124,31,28)"/>
  <rect x="200" y="350" width="50" height="50" fill="rgb(126,31,28)"/>
  <rect x="150" y="400" width="50" height="50" fill="rgb(128,31,28)"/>
  <rect x="100" y="450" width="50" height="50" fill="rgb(130,31,28)"/>
  <rect x="50" y="500" width="50" height="50" fill="rgb(131,31,29)"/>
  <rect x="0" y="550" width="50" height="50" fill="rgb(133,32,29)"/>
  <rect x="600" y="0" width="50" height="50" fill="rgb(135,32,29)"/>
  <rect x="550" y="50" width="50" height="50" fill="rgb(137,32,29)"/>
  <rect x="500" y="100" width="50" height="50" fill="rgb(139,32,30)"/>
  <rect x="450" y="150" width="50" height="50" fill="rgb(140,32,30)"/>
  <rect x="400" y="200" width="50" height="50" fill="rgb(142,32,30)"/>
  <rect x="350" y="250" width="50" height="50" fill="rgb(144,32,30)"/>
  <rect x="300" y="300" width="50" height="50" fill="rgb(146,32,31)"/>
  <rect x="250" y="350" width="50" height="50" fill="rgb(148,32,31)"/>
  <rect x="200" y="400" width="50" height="50" fill="rgb(149,33,31)"/>
  <rect x="150" y="450" width="50" height="50" fill="rgb(151,33,32)"/>
  <rect x="100" y="500" width="50" height="50" fill="rgb(153,33,32)"/>
  <rect x="50" y="550" width="50" height="50" fill="rgb(155,33,32)"/>
  <rect x="0" y="600" width="50" height="50" fill="rgb(157,33,32)"/>
  <rect x="650" y="0" width="50" height="50" fill="rgb(159,33,33)"/>
  <rect x="600" y="50" width="50" height="50" fill="rgb(160,33,33)"/>
  <rect x="550" y="100" width="50" height="50" fill="rgb(162,33,33)"/>
  <rect x="500" y="150" width="50" height="50" fill="rgb(164,33,33)"/>
  <rect x="450" y="200" width="50" height="50" fill="rgb(166,33,34)"/>
  <rect x="400" y="250" width="50" height="50" fill="rgb(168,33,34)"/>
  <rect x="350" y="300" width="50" height="50" fill="rgb(170,33,34)"/>
  <rect x="300" y="350" width="50" height="50" fill="rgb(172,33,35)"/>
  <rect x="250" y="400" width="50" height="50" fill="rgb(173,33,35)"/>
  <rect x="200" y="450" width="50" height="50" fill="rgb(175,34,35)"/>
  <rect x="150" y="500" width="50" height="50" fill="rgb(176,36,35)"/>
  <rect x="100" y="550" width="50" height="50" fill="rgb(177,38,35)"/>
  <rect x="50" y="600" width="50" height="50" fill="rgb(178,39,34)"/>
  <rect x="0" y="650" width="50" height="50" fill="rgb(179,41,34)"/>
  <rect x="700" y="0" width="50" height="50" fill="rgb(180,43,34)"/>
  <rect x="650" y="50" width="50" height="50" fill="rgb(181,45,34)"/>
  <rect x="600" y="100" width="50" height="50" fill="rgb(182,46,33)"/>
  <rect x="550" y="150" width="50" height="50" fill="rgb(183,48,33)"/>
  <rect x="500" y="200" width="50" height="50" fill="rgb(184,50,33)"/>
  <rect x="450" y="250" width="50" height="50" fill="rgb(185,51,33)"/>
  <rect x="400" y="300" width="50" height="50" fill="rgb(186,53,32)"/>
  <rect x="350" y="350" width="50" height="50" fill="rgb(187,55,32)"/>
  <rect x="300" y="400" width="50" height="50" fill="rgb(188,56,32)"/>
  <rect x="250" y="450" width="50" height="50" fill="rgb(189,58,31)"/>
  <rect x="200" y="500" width="50" height="50" fill="rgb(189,59,31)"/>
  <rect x="150" y="550" width="50" height="50" fill="rgb(190,61,31)"/>
  <rect x="100" y="600" width="50" height="50" fill="rgb(191,62,30)"/>
  <rect x="50" y="650" width="50" height="50" fill="rgb(192,64,30)"/>
  <rect x="0" y="700" width="50" height="50" fill="rgb(193,65,29)"/>
  <rect x="750" y="0" width="50" height="50" fill="rgb(194,66,29)"/>
  <rect x="700" y="50" width="50" height="50" fill="rgb(195,68,29)"/>
  <rect x="650" y="100" width="50" height="50" fill="rgb(196,69,28)"/>
  <rect x="600" y="150" width="50" height="50" fill="rgb(197,71,28)"/>
  <rect x="550" y="200" width="50" height="50" fill="rgb(198,72,27)"/>
  <rect x="500" y="250" width="50" height="50" fill="rgb(199,73,27)"/>
  <rect x="450" y="300" width="50" height="50" fill="rgb(200,75,26)"/>
  <rect x="400" y="350" width="50" height="50" fill="rgb(201,76,26)"/>
  <rect x="350" y="400" width="50" height="50" fill="rgb(202,78,25)"/>
  <rect x="300" y="450" width="50" height="50" fill="rgb(203,79,25)"/>
  <rect x="250" y="500" width="50" height="50" fill="rgb(204,80,24)"/>
  <rect x="200" y="550" width="50" height="50" fill="rgb(205,82,24)"/>
  <rect x="150" y="600" width="50" height="50" fill="rgb(206,83,23)"/>
  <rect x="100" y="650" width="50" height="50" fill="rgb(207,84,22)"/>
  <rect x="50" y="700" width="50" height="50" fill="rgb(208,86,22)"/>
  <rect x="0" y="750" width="50" height="50" fill="rgb(208,87,21)"/>
  <rect x="750" y="50" width="50" height="50" fill="rgb(209,88,20)"/>
  <rect x="700" y="100" width="50" height="50" fill="rgb(210,90,19)"/>
  <rect x="650" y="150" width="50" height="50" fill="rgb(211,91,19)"/>
  <rect x="600" y="200" width="50" height="50" fill="rgb(212,92,18)"/>
  <rect x="550" y="250" width="50" height="50" fill="rgb(213,94,17)"/>
  <rect x="500" y="300" width="50" height="50" fill="rgb(214,95,16)"/>
  <rect x="450" y="350" width="50" height="50" fill="rgb(215,96,15)"/>
  <rect x="400" y="400" width="50" height="50" fill="rgb(216,98,14)"/>
  <rect x="350" y="450" width="50" height="50" fill="rgb(217,99,12)"/>
  <rect x="300" y="500" width="50" height="50" fill="rgb(218,100,11)"/>
  <rect x="250" y="550" width="50" height="50" fill="rgb(219,102,10)"/>
  <rect x="200" y="600" width="50" height="50" fill="rgb(220,103,8)"/>
  <rect x="150" y="650" width="50" height="50" fill="rgb(221,104,7)"/>
  <rect x="100" y="700" width="50" height="50" fill="rgb(222,105,5)"/>
  <rect x="50" y="750" width="50" height="50" fill="rgb(222,107,5)"/>
  <rect x="750" y="100" width="50" height="50" fill="rgb(222,109,5)"/>
  <rect x="700" y="150" width="50" height="50" fill="rgb(223,111,5)"/>
  <rect x="650" y="200" width="50" height="50" fill="rgb(223,113,5)"/>
  <rect x="600" y="250" width="50" height="50" fill="rgb(223,114,5)"/>
  <rect x="550" y="300" width="50" height="50" fill="rgb(223,116,5)"/>
  <rect x="500" y="350" width="50" height="50" fill="rgb(223,118,4)"/>
  <rect x="450" y="400" width="50" height="50" fill="rgb(224,120,4)"/>
  <rect x="400" y="450" width="50" height="50" fill="rgb(224,121,4)"/>
  <rect x="350" y="500" width="50" height="50" fill="rgb(224,123,4)"/>
  <rect x="300" y="550" width="50" height="50" fill="rgb(224,125,4)"/>
  <rect x="250" y="600" width="50" height="50" fill="rgb(225,126,4)"/>
  <rect x="200" y="650" width="50" height="50" fill="rgb(225,128,4)"/>
  <rect x="150" y="700" width="50" height="50" fill="rgb(225,130,4)"/>
  <rect x="100" y="750" width="50" height="50" fill="rgb(225,131,4)"/>
  <rect x="750" y="150" width="50" height="50" fill="rgb(225,133,4)"/>
  <rect x="700" y="200" width="50" height="50" fill="rgb(226,135,4)"/>
  <rect x="650" y="250" width="50" height="50" fill="rgb(226,136,4)"/>
  <rect x="600" y="300" width="50" height="50" fill="rgb(226,138,4)"/>
  <rect x="550" y="350" width="50" height="50" fill="rgb(226,140,4)"/>
  <rect x="500" y="400" width="50" height="50" fill="rgb(226,141,4)"/>
  <rect x="450" y="450" width="50" height="50" fill="rgb(226,143,4)"/>
  <rect x="400" y="500" width="50" height="50" fill="rgb(227,145,3)"/>
  <rect x="350" y="550" width="50" height="50" fill="rgb(227,146,3)"/>
  <rect x="300" y="600" width="50" height="50" fill="rgb(227,148,3)"/>
  <rect x="250" y="650" width="50" height="50" fill="rgb(227,150,3)"/>
  <rect x="200" y="700" width="50" height="50" fill="rgb(227,151,3)"/>
  <rect x="150" y="750" width="50" height="50" fill="rgb(227,153,3)"/>
  <rect x="750" y="200" width="50" height="50" fill="rgb(227,154,3)"/>
  <rect x="700" y="250" width="50" height="50" fill="rgb(228,156,3)"/>
  <rect x="650" y="300" width="50" height="50" fill="rgb(228,158,3)"/>
  <rect x="600" y="350" width="50" height="50" fill="rgb(228,159,3)"/>
  <rect x="550" y="400" width="50" height="50" fill="rgb(228,161,3)"/>
  <rect x="500" y="450" width="50" height="50" fill="rgb(228,162,3)"/>
  <rect x="450" y="500" width="50" height="50" fill="rgb(228,164,3)"/>
  <rect x="400" y="550" width="50" height="50" fill="rgb(228,166,3)"/>
  <rect x="350" y="600" width="50" height="50" fill="rgb(228,167,3)"/>
  <rect x="300" y="650" width="50" height="50" fill="rgb(228,169,3)"/>
  <rect x="250" y="700" width="50" height="50" fill="rgb(228,170,3)"/>
  <rect x="200" y="750" width="50" height="50" fill="rgb(229,172,3)"/>
  <rect x="750" y="250" width="50" height="50" fill="rgb(229,173,4)"/>
  <rect x="700" y="300" width="50" height="50" fill="rgb(229,175,4)"/>
  <rect x="650" y="350" width="50" height="50" fill="rgb(229,177,4)"/>
  <rect x="600" y="400" width="50" height="50" fill="rgb(229,178,4)"/>
  <rect x="550" y="450" width="50" height="50" fill="rgb(229,180,4)"/>
  <rect x="500" y="500" width="50" height="50" fill="rgb(229,181,4)"/>
  <rect x="450" y="550" width="50" height="50" fill="rgb(229,183,4)"/>
  <rect x="400" y="600" width="50" height="50" fill="rgb(229,184,4)"/>
  <rect x="350" y="650" width="50" height="50" fill="rgb(229,186,4)"/>
  <rect x="300" y="700" width="50" height="50" fill="rgb(229,187,4)"/>
  <rect x="250" y="750" width="50" height="50" fill="rgb(229,189,4)"/>
  <rect x="750" y="300" width="50" height="50" fill="rgb(229,191,4)"/>
  <rect x="700" y="350" width="50" height="50" fill="rgb(229,192,4)"/>
  <rect x="650" y="400" width="50" height="50" fill="rgb(229,194,4)"/>
  <rect x="600" y="450" width="50" height="50" fill="rgb(229,195,5)"/>
  <rect x="550" y="500" width="50" height="50" fill="rgb(229,197,5)"/>
  <rect x="500" y="550" width="50" height="50" fill="rgb(229,198,5)"/>
  <rect x="450" y="600" width="50" height="50" fill="rgb(229,200,5)"/>
  <rect x="400" y="650" width="50" height="50" fill="rgb(229,201,5)"/>
  <rect x="350" y="700" width="50" height="50" fill="rgb(229,203,5)"/>
  <rect x="300" y="750" width="50" height="50" fill="rgb(229,205,5)"/>
  <rect x="750" y="350" width="50" height="50" fill="rgb(229,206,6)"/>
  <rect x="700" y="400" width="50" height="50" fill="rgb(229,208,6)"/>
  <rect x="650" y="450" width="50" height="50" fill="rgb(229,209,6)"/>
  <rect x="600" y="500" width="50" height="50" fill="rgb(229,211,6)"/>
  <rect x="550" y="550" width="50" height="50" fill="rgb(229,212,17)"/>
  <rect x="500" y="600" width="50" height="50" fill="rgb(230,213,32)"/>
  <rect x="450" y="650" width="50" height="50" fill="rgb(231,214,43)"/>
  <rect x="400" y="700" width="50" height="50" fill="rgb(232,215,52)"/>
  <rect x="350" y="750" width="50" height="50" fill="rgb(233,216,60)"/>
  <rect x="750" y="400" width="50" height="50" fill="rgb(234,217,67)"/>
  <rect x="700" y="450" width="50" height="50" fill="rgb(235,218,74)"/>
  <rect x="650" y="500" width="50" height="50" fill="rgb(236,219,81)"/>
  <rect x="600" y="550" width="50" height="50" fill="rgb(237,220,87)"/>
  <rect x="550" y="600" width="50" height="50" fill="rgb(238,221,93)"/>
  <rect x="500" y="650" width="50" height="50" fill="rgb(239,222,99)"/>
  <rect x="450" y="700" width="50" height="50" fill="rgb(240,223,105)"/>
  <rect x="400" y="750" width="50" height="50" fill="rgb(241,224,110)"/>
  <rect x="750" y="450" width="50" height="50" fill="rgb(242,225,116)"/>
  <rect x="700" y="500" width="50" height="50" fill="rgb(243,227,121)"/>
  <rect x="650" y="550" width="50" height="50" fill="rgb(244,228,127)"/>
  <rect x="600" y="600" width="50" height="50" fill="rgb(244,229,132)"/>
  <rect x="550" y="650" width="50" height="50" fill="rgb(245,230,137)"/>
  <rect x="500" y="700" width="50" height="50" fill="rgb(246,231,143)"/>
  <rect x="450" y="750" width="50" height="50" fill="rgb(247,232,148)"/>
  <rect x="750" y="500" width="50" height="50" fill="rgb(247,233,153)"/>
  <rect x="700" y="550" width="50" height="50" fill="rgb(248,234,158)"/>
  <rect x="650" y="600" width="50" height="50" fill="rgb(249,235,163)"/>
  <rect x="600" y="650" width="50" height="50" fill="rgb(249,236,168)"/>
  <rect x="550" y="700" width="50" height="50" fill="rgb(250,237,173)"/>
  <rect x="500" y="750" width="50" height="50" fill="rgb(250,238,179)"/>
  <rect x="750" y="550" width="50" height="50" fill="rgb(251,239,184)"/>
  <rect x="700" y="600" width="50" height="50" fill="rgb(251,241,189)"/>
  <rect x="650" y="650" width="50" height="50" fill="rgb(252,242,194)"/>
  <rect x="600" y="700" width="50" height="50" fill="rgb(252,243,199)"/>
  <rect x="550" y="750" width="50" height="50" fill="rgb(253,244,204)"/>
  <rect x="750" y="600" width="50" height="50" fill="rgb(253,245,209)"/>
  <rect x="700" y="650" width="50" height="50" fill="rgb(253,246,214)"/>
  <rect x="650" y="700" width="50" height="50" fill="rgb(254,247,219)"/>
  <rect x="600" y="750" width="50" height="50" fill="rgb(254,248,224)"/>
  <rect x="750" y="650" width="50" height="50" fill="rgb(254,249,229)"/>
  <rect x="700" y="700" width="50" height="50" fill="rgb(254,251,235)"/>
  <rect x="650" y="750" width="50" height="50" fill="rgb(255,252,240)"/>
  <rect x="750" y="700" width="50" height="50" fill="rgb(255,253,245)"/>
  <rect x="700" y="750" width="50" height="50" fill="rgb(255,254,250)"/>
  <rect x="750" y="750" width="50" height="50" fill="rgb(255,255,255)"/>
</svg>
